<?xml version="1.0" encoding="UTF-8"?>
<!DOCTYPE svg PUBLIC "-//W3C//DTD SVG 1.1//EN" "http://www.w3.org/Graphics/SVG/1.1/DTD/svg11.dtd">
<!-- Creator: CorelDRAW -->
<svg xmlns="http://www.w3.org/2000/svg" xml:space="preserve" width="210mm" height="297mm" version="1.1" style="shape-rendering:geometricPrecision; text-rendering:geometricPrecision; image-rendering:optimizeQuality; fill-rule:evenodd; clip-rule:evenodd"
viewBox="0 0 21000 29700"
 xmlns:xlink="http://www.w3.org/1999/xlink"
 xmlns:xodm="http://www.corel.com/coreldraw/odm/2003">
 <defs>
  <style type="text/css">
   <![CDATA[
    .str1 {stroke:#3370F6;stroke-width:88.19;stroke-miterlimit:22.9256}
    .str0 {stroke:#4C81F6;stroke-width:88.19;stroke-miterlimit:22.9256}
    .fil14 {fill:none}
    .fil13 {fill:#FEFEFE}
    .fil5 {fill:#5B5B5B}
    .fil16 {fill:#EF7F1A}
    .fil7 {fill:black}
    .fil0 {fill:#3370F6}
    .fil10 {fill:#8247CF}
    .fil9 {fill:#FCB75E}
    .fil8 {fill:#FF7581}
    .fil11 {fill:#FF8691}
    .fil12 {fill:#FEFEFE;fill-rule:nonzero}
    .fil15 {fill:#EF7F1A;fill-rule:nonzero}
    .fil6 {fill:#303030;fill-opacity:0.321569}
    .fil4 {fill:#FEFEFE;fill-opacity:0.678431}
    .fil3 {fill:#FF7581;fill-opacity:0.831373}
    .fil2 {fill:#FCB75E;fill-opacity:0.890196}
    .fil1 {fill:#8247CF;fill-opacity:0.909804}
   ]]>
  </style>
 </defs>
 <g id="Layer_x0020_1">
  <metadata id="CorelCorpID_0Corel-Layer"/>
  <ellipse class="fil0" cx="9341.67" cy="7351.6" rx="1954.18" ry="1954.31"/>
  <path class="fil1" d="M8616.59 6230.3c880.6,0 1594.48,713.88 1594.48,1594.48 0,880.61 -713.88,1594.49 -1594.48,1594.49 -880.61,0 -1594.49,-713.88 -1594.49,-1594.49 0,-880.6 713.88,-1594.48 1594.49,-1594.48z"/>
  <path class="fil2" d="M8826.92 4721.34c706.82,0 1279.82,593.62 1279.82,1325.89 0,732.26 -573,1325.89 -1279.82,1325.89 -706.83,0 -1279.82,-593.63 -1279.82,-1325.89 0,-732.27 572.99,-1325.89 1279.82,-1325.89z"/>
  <path class="fil3" d="M10371.53 5568.84c615.75,0 1114.92,517.14 1114.92,1155.06 0,637.92 -499.17,1155.06 -1114.92,1155.06 -615.75,0 -1114.93,-517.14 -1114.93,-1155.06 0,-637.92 499.18,-1155.06 1114.93,-1155.06z"/>
  <path class="fil4" d="M9136.56 5501.04c965.99,3.66 1749.08,817.77 1749.08,1818.35 0,1000.57 -783.09,1808.74 -1749.08,1805.07 -965.98,-3.66 -1749.07,-817.77 -1749.07,-1818.35 0,-1000.57 783.09,-1808.74 1749.07,-1805.07z"/>
  <ellipse class="fil5" cx="8979.82" cy="7337.06" rx="1671.59" ry="1678.35"/>
  <path class="fil6" d="M8979.37 5496.77c908.49,0 1644.98,688.84 1644.98,1538.55 0,849.72 -736.49,1538.56 -1644.98,1538.56 -908.49,0 -1644.98,-688.84 -1644.98,-1538.56 0,-849.71 736.49,-1538.55 1644.98,-1538.55z"/>
  <circle class="fil7" cx="8987.47" cy="7275.2" r="1618.43"/>
  <ellipse class="fil0" cx="10033.17" cy="4372.41" rx="344.02" ry="367.1"/>
  <ellipse class="fil8" cx="6936.42" cy="6169.16" rx="282.86" ry="301.83"/>
  <ellipse class="fil9" cx="10263.64" cy="9735.15" rx="205.6" ry="219.39"/>
  <ellipse class="fil10" cx="8516.39" cy="9829.73" rx="143.27" ry="152.88"/>
  <ellipse class="fil11" cx="10408.82" cy="5170.35" rx="156.09" ry="166.56"/>
  <path class="fil12" d="M8426.41 7592.92c-84.35,-105.11 -168.7,-210.23 -253.05,-315.34l253.05 -314.57 58.61 87.74 -186.22 225.89 186.22 228.54 -58.61 87.74zm1109.13 -629.91l253.43 314.57 -253.43 315.34 -58.22 -87.74 186.22 -226.46 -186.22 -227.97 58.22 -87.74z"/>
  <ellipse class="fil13" cx="8454.9" cy="7007.6" rx="49.1" ry="55.28"/>
  <ellipse class="fil13" cx="8455.72" cy="7549.05" rx="49.1" ry="55.28"/>
  <ellipse class="fil13" cx="9505.61" cy="7007.6" rx="49.1" ry="55.28"/>
  <ellipse class="fil13" cx="9506.43" cy="7549.05" rx="49.1" ry="55.28"/>
  <path class="fil14 str0" d="M9180.26 6947.18c101.76,-2.5 168.69,82.06 168.69,172.65 0,164.09 -333.08,491.74 -368.78,492.27 -30.08,0.45 -368.74,-328.18 -368.74,-492.27 0,-90.59 64.38,-163.09 165.85,-171.22 150.45,-12.07 193.93,195.81 202.89,195.48 8.96,-0.33 27.51,-192.66 200.09,-196.91z"/>
  <path class="fil12" d="M8436.41 7592.92c-84.35,-105.11 -168.7,-210.23 -253.05,-315.34l253.05 -314.57 58.61 87.74 -186.22 225.89 186.22 228.54 -58.61 87.74zm1109.13 -629.91l253.43 314.57 -253.43 315.34 -58.22 -87.74 186.22 -226.46 -186.22 -227.97 58.22 -87.74z"/>
  <ellipse class="fil13" cx="8464.9" cy="7007.6" rx="49.1" ry="55.28"/>
  <ellipse class="fil13" cx="8465.72" cy="7549.05" rx="49.1" ry="55.28"/>
  <ellipse class="fil13" cx="9515.61" cy="7007.6" rx="49.1" ry="55.28"/>
  <ellipse class="fil13" cx="9516.43" cy="7549.05" rx="49.1" ry="55.28"/>
  <path class="fil14 str0" d="M9190.26 6947.18c101.76,-2.5 168.69,82.06 168.69,172.65 0,164.09 -333.08,491.74 -368.78,492.27 -30.08,0.45 -368.74,-328.18 -368.74,-492.27 0,-90.59 64.38,-163.09 165.85,-171.22 150.45,-12.07 193.93,195.81 202.89,195.48 8.96,-0.33 27.51,-192.66 200.09,-196.91z"/>
  <path class="fil15" d="M8436.41 7592.92c-84.35,-105.11 -168.7,-210.23 -253.05,-315.34l253.05 -314.57 58.61 87.74 -186.22 225.89 186.22 228.54 -58.61 87.74zm1109.13 -629.91l253.43 314.57 -253.43 315.34 -58.22 -87.74 186.22 -226.46 -186.22 -227.97 58.22 -87.74z"/>
  <ellipse class="fil16" cx="8464.9" cy="7007.6" rx="49.1" ry="55.28"/>
  <ellipse class="fil16" cx="8465.72" cy="7549.05" rx="49.1" ry="55.28"/>
  <ellipse class="fil16" cx="9515.61" cy="7007.6" rx="49.1" ry="55.28"/>
  <ellipse class="fil16" cx="9516.43" cy="7549.05" rx="49.1" ry="55.28"/>
  <path class="fil0 str1" d="M9180.26 6947.18c101.76,-2.5 168.69,82.06 168.69,172.65 0,164.09 -333.08,491.74 -368.78,492.27 -30.08,0.45 -368.74,-328.18 -368.74,-492.27 0,-90.59 64.38,-163.09 165.85,-171.22 150.45,-12.07 193.93,195.81 202.89,195.48 8.96,-0.33 27.51,-192.66 200.09,-196.91z"/>
 </g>
</svg>
