<?xml version="1.0" encoding="UTF-8"?>
<!DOCTYPE svg PUBLIC "-//W3C//DTD SVG 1.1//EN" "http://www.w3.org/Graphics/SVG/1.1/DTD/svg11.dtd">
<!-- Creator: CorelDRAW -->
<svg xmlns="http://www.w3.org/2000/svg" xml:space="preserve" width="210mm" height="297mm" version="1.1" style="shape-rendering:geometricPrecision; text-rendering:geometricPrecision; image-rendering:optimizeQuality; fill-rule:evenodd; clip-rule:evenodd"
viewBox="0 0 21000 29700"
 xmlns:xlink="http://www.w3.org/1999/xlink"
 xmlns:xodm="http://www.corel.com/coreldraw/odm/2003">
 <defs>
  <style type="text/css">
   <![CDATA[
    .str0 {stroke:#051747;stroke-width:88.19;stroke-miterlimit:22.9256}
    .fil1 {fill:#EF7F1A}
    .fil2 {fill:#051747}
    .fil0 {fill:#EF7F1A;fill-rule:nonzero}
   ]]>
  </style>
 </defs>
 <g id="Layer_x0020_1">
  <metadata id="CorelCorpID_0Corel-Layer"/>
  <path class="fil0" d="M8426.41 7592.92c-84.35,-105.11 -168.7,-210.23 -253.05,-315.34l253.05 -314.57 58.61 87.74 -186.22 225.89 186.22 228.54 -58.61 87.74zm1109.13 -629.91l253.43 314.57 -253.43 315.34 -58.22 -87.74 186.22 -226.46 -186.22 -227.97 58.22 -87.74z"/>
  <ellipse class="fil1" cx="8454.9" cy="7007.6" rx="49.1" ry="55.28"/>
  <ellipse class="fil1" cx="8455.72" cy="7549.05" rx="49.1" ry="55.28"/>
  <ellipse class="fil1" cx="9505.61" cy="7007.6" rx="49.1" ry="55.28"/>
  <ellipse class="fil1" cx="9506.43" cy="7549.05" rx="49.1" ry="55.28"/>
  <path class="fil2 str0" d="M9180.26 6947.18c101.76,-2.5 168.69,82.06 168.69,172.65 0,164.09 -333.08,491.74 -368.78,492.27 -30.08,0.45 -368.74,-328.18 -368.74,-492.27 0,-90.59 64.38,-163.09 165.85,-171.22 150.45,-12.07 193.93,195.81 202.89,195.48 8.96,-0.33 27.51,-192.66 200.09,-196.91z"/>
 </g>
</svg>
